<?xml version="1.0" encoding="utf-8"?>
<!-- Generator: Adobe Illustrator 22.0.0, SVG Export Plug-In . SVG Version: 6.00 Build 0)  -->
<svg version="1.1" xmlns="http://www.w3.org/2000/svg" xmlns:xlink="http://www.w3.org/1999/xlink" x="0px" y="0px"
	 viewBox="0 0 2560 1600" style="enable-background:new 0 0 2560 1600;" xml:space="preserve">
<style type="text/css">
	.st0{fill:#DCD0C0;}
	.st1{fill:none;stroke:#373737;stroke-width:5;stroke-miterlimit:10;}
	.st2{fill:#373737;stroke:#373737;stroke-width:5;stroke-miterlimit:10;}
	.st3{fill:#373737;}
	.st4{font-family:'Pacifico-Regular';}
	.st5{font-size:44.4804px;}
	.st6{font-size:43.7441px;}
	.st7{font-size:41.9274px;}
	.st8{font-size:44.1854px;}
	.st9{font-size:41.4105px;}
	.st10{fill:#373737;stroke:#000000;stroke-width:0.5;stroke-miterlimit:10;}
	.st11{font-family:'AlwaysTogether';}
</style>
<g id="Camada_1">
	<rect class="st0" width="2560" height="1600"/>
</g>
<g id="Camada_2">
</g>
<g id="Camada_3">
	<g>
		<path class="st1" d="M447.1,1331L447.1,1331C447,1331.1,446.9,1331.1,447.1,1331z"/>
		<path class="st1" d="M710.6,1402.7L710.6,1402.7C710.7,1402.9,710.7,1402.8,710.6,1402.7z"/>
		<path class="st1" d="M530.9,1368.5c-26.3-16.4-70.7-29-79.6-26.3c-9.7,2.8-15.2,22.6-11.1,52.2c8.3,38,47.9,52,62.2,50.4
			c7.1-0.4,18.8-9.1,28.5-21.3c11.3-14.1,17.5-29.6,15.9-39.4C546.6,1382.6,544.7,1377.2,530.9,1368.5z"/>
		<path class="st1" d="M701.3,1410.2c-6.4-6.8-50.9-18.5-81.9-17.6c-16.2,0.4-20.6,4.2-21.6,5.4c-6.4,7.7-8.9,24.2-6.3,42
			c2.2,15.4,7.9,28.9,13.8,32.8c11.5,8.7,52.8,16.6,79.2-11.9C703,1437.4,708.2,1417.6,701.3,1410.2z"/>
		<path class="st2" d="M727.8,1408.3l-17.2-5.6c0.1,0.1,0.1,0.1,0,0c0,0-60-22.3-91.6-21.5c-2.8,0.1-5.5,0.3-8,0.5
			c-5.6,0.6-11.3,0.9-16.9,0.2c-5.9-0.7-12.1-1.8-18.4-3.4c-6.3-1.9-12.2-4-17.6-6.4c-5.2-2.3-9.9-5.4-14.5-8.8
			c-2-1.5-4.2-3-6.6-4.5c-26.8-16.7-89.8-27.9-89.8-27.9c-0.2,0.1-0.1,0,0,0l-17.6-3.9c-2.1-0.6-4.3,0.1-5.7,1.6l-1.3,4.7l0.3,26.7
			c0.2,13.4,1.2,22.2,7.5,41.2c7,22.7,27,45,50.7,51.4c9.1,2.5,17.2,3.3,22.1,3.1c12.6-2.3,27.1-13.4,36.6-25.2
			c8.2-10.2,13.8-20.7,16.6-30.4c0.5-1.9,1.9-3.3,3.8-3.9c3.3-1,7-1.4,10.9-0.9c3.6,1.6,6.7,3.7,9,6.3c1.3,1.4,1.8,3.4,1.3,5.3
			c-2.5,9.8-3,21.7-1.1,34.7c2.2,15.1,9.1,32,18.8,40.3c4.1,2.7,11.5,6.1,20.6,8.6c23.7,6.4,52.2-2.6,69.8-18.6
			c15.1-13.2,20.4-20.3,27.4-31.7l13.8-22.9l1.3-4.7C731.4,1410.6,729.9,1408.9,727.8,1408.3z M530.9,1423.5
			c-9.7,12.1-21.5,20.9-28.5,21.3c-14.3,1.6-53.9-12.4-62.2-50.4c-4.1-29.6,1.4-49.3,11.1-52.2c8.9-2.6,53.3,9.9,79.6,26.3
			c13.8,8.6,15.7,14.1,15.9,15.6C548.5,1394,542.2,1409.4,530.9,1423.5z M684.4,1460.8c-26.4,28.5-67.7,20.6-79.2,11.9
			c-5.9-3.9-11.6-17.4-13.8-32.8c-2.6-17.9-0.1-34.4,6.3-42c1-1.1,5.3-4.9,21.6-5.4c31-0.9,75.6,10.8,81.9,17.6
			C708.2,1417.6,703,1437.4,684.4,1460.8z"/>
		<path class="st2" d="M710.6,1402.7L710.6,1402.7C710.5,1402.6,710.4,1402.5,710.6,1402.7z"/>
		<path class="st2" d="M447.1,1331L447.1,1331C447.3,1330.9,447.2,1331,447.1,1331z"/>
	</g>
	<g>
		<path class="st3" d="M229.1,1133.8l38.5,14.9c6.9,2.7,12.7,7.8,16.2,14.3l24.9,46.3c1.7,3.1,5.2,4.9,8.6,4.2
			c48.2-9.5,38.7-124.5,36.2-145.6c-0.3-2.2,2-13,0.3-14.5L327,1030c-2.4-2.1-5.6-2.9-8.6-2.2c0,0-11,2.2-13,1.5l-34.4-13.3
			l-26.7-10.3c-2-0.8-9.7-10.3-9.7-10.3c-1.8-2.6-4.7-4.1-7.8-4.2l-35.7-0.7c-2.3,0-7.8,9.4-9.5,10.9c-16.1,14-100.6,92.5-71.3,132
			c2.1,2.8,5.9,3.9,9.2,2.7l49.6-17.5c7-2.5,14.7-2.4,21.6,0.3L229.1,1133.8z"/>
		<circle class="st0" cx="274.7" cy="1109.2" r="17.5"/>
		<circle class="st0" cx="196.7" cy="1032.1" r="17.5"/>
		<circle class="st0" cx="325.4" cy="1063.2" r="8.7"/>
		<circle class="st0" cx="302.7" cy="1073.2" r="8.7"/>
		<circle class="st0" cx="335.4" cy="1085.8" r="8.7"/>
		<circle class="st0" cx="312.7" cy="1095.8" r="8.7"/>
		<path class="st0" d="M283.6,1025.7c0.3-0.8,0.5-1.6,0.7-2.4s0.1-1.6-0.1-2.3c-4.8-1.8-8.5-3.3-10.1-3.9c-0.4-0.1-0.7-0.1-1.1-0.3
			c-0.4-0.1-0.6-0.4-1-0.5c-0.1,0-1-0.4-1-0.4l-9.2-3.5c-0.5,0.3-1,0.7-1.4,1.3c-1,1.5-1.7,3.2-2,5.2c-0.8,5.2,1.7,10.6,6.2,13.2
			C271.8,1036.4,280.7,1033.1,283.6,1025.7z"/>
		<path class="st0" d="M239.7,1084.7l-13.4-5.2l5.2-13.4c0.6-1.6-0.2-3.4-1.8-4l-10.5-4.1c-1.6-0.6-3.4,0.2-4,1.8l-5.2,13.4
			l-13.4-5.2c-1.6-0.6-3.4,0.2-4,1.8l-4.1,10.5c-0.6,1.6,0.2,3.4,1.8,4l13.4,5.2l-5.2,13.4c-0.6,1.6,0.2,3.4,1.8,4l10.5,4.1
			c1.6,0.6,3.4-0.2,4-1.8l5.2-13.4l13.4,5.2c1.6,0.6,3.4-0.2,4-1.8l4.1-10.5C242.1,1087.1,241.3,1085.3,239.7,1084.7z"/>
	</g>
	<g>
		<g>
			<path class="st3" d="M291.2,1307.2l-16.8,11.3l-13.2-39.2c-8.1-23.9-54.4-29.9-103.6-13.3c-49.1,16.6-82.4,49.4-74.3,73.3
				l52.6,156c8.1,23.9,54.4,29.9,103.6,13.3c49.1-16.6,82.4-49.4,74.3-73.3l-8.8-26l0,0c22.1-20,37.6-38.3,34.3-69.5
				C326.2,1282.8,310.9,1296.5,291.2,1307.2z M120.9,1316.3c11.7-9.7,27.8-18.3,45.5-24.3c17.6-6,35.7-8.9,50.9-8.2
				c9.7,0.4,16.1,2.2,19.7,3.7c-1.9,3.4-5.9,8.7-13.4,14.9c-11.7,9.7-27.8,18.3-45.5,24.3s-35.7,8.9-50.9,8.2
				c-9.7-0.4-16.1-2.2-19.7-3.7C109.5,1327.8,113.5,1322.5,120.9,1316.3z M317.4,1363.1c-5.7,12.2-14.3,18.6-20.9,20.9l-0.8-2.3
				l-12.2-36.3l0,0c6.7-4.9,28.4-24.3,31.3-22.6c2.9,1.7,4.1,5.1,6.7,12.8C324,1343.3,324.5,1344.8,317.4,1363.1z"/>
		</g>
		<g>
			<text transform="matrix(0.9475 -0.3197 0.3197 0.9475 163.2502 1380.7072)" class="st0 st4 st5">the</text>
			<text transform="matrix(0.9475 -0.3197 0.3197 0.9475 156.5594 1430.3667)" class="st0 st4 st6">future</text>
			<text transform="matrix(0.9475 -0.3197 0.3197 0.9475 200.0732 1449.5763)" class="st0 st4 st7">is</text>
			<text transform="matrix(0.9475 -0.3197 0.3197 0.9475 168.2095 1493.9993)" class="st0 st4 st8">female</text>
		</g>
	</g>
	<g>
		<path class="st3" d="M755.5,1206.5c-0.3-0.3-0.8-0.4-1.3-0.3l-314.7,40.5c-0.5,0.1-0.9,0.3-1.2,0.7c-0.3,0.3-0.4,0.8-0.2,1.2
			c0.1,0.3,8.1,25.3,45,20.5l234.6-30.2c36.8-4.7,38.3-31,38.3-31.2C756,1207.1,755.8,1206.7,755.5,1206.5z M618.6,1242.4l-38.8,5
			c-2.4,0.3-4.5-1.4-4.8-3.7l-0.7-5.3l47.3-6.1l0.7,5.3C622.6,1239.9,621,1242.1,618.6,1242.4z"/>
		<path class="st3" d="M702.3,1023.6l-261.4,33.6c-3.8,0.5-6.5,3.9-6,7.7l20.7,160.5c0.5,3.8,3.9,6.5,7.7,6l261.4-33.6
			c3.8-0.5,6.5-3.9,6-7.7L710,1029.6C709.5,1025.8,706,1023.1,702.3,1023.6z M593.7,1212.6c-5.6,0.7-10.6-3.2-11.3-8.8
			c-0.7-5.6,3.2-10.6,8.8-11.3c5.6-0.7,10.6,3.2,11.3,8.8C603.2,1206.8,599.3,1211.8,593.7,1212.6z M704.5,1176.1l-227.2,29.2
			L461.1,1079l227.2-29.2L704.5,1176.1z"/>
		<g>
			<text transform="matrix(0.9918 -0.1277 0.1277 0.9918 551.2578 1113.0576)" class="st3 st4 st9">code</text>
			<text transform="matrix(0.9918 -0.1277 0.1277 0.9918 535.3251 1119.7463)" class="st10 st11 st9">&lt;</text>
			<text transform="matrix(0.9918 -0.1277 0.1277 0.9918 630.5907 1107.4823)" class="st10 st11 st9">&gt;</text>
			<text transform="matrix(0.9918 -0.1277 0.1277 0.9918 487.7177 1155.5408)" class="st3 st4 st9">your</text>
			<text transform="matrix(0.9918 -0.1277 0.1277 0.9918 569.4918 1175.7505)" class="st3 st4 st9">future</text>
		</g>
	</g>
</g>
</svg>
