<?xml version="1.0" encoding="utf-8"?>
<!-- Generator: Adobe Illustrator 22.0.0, SVG Export Plug-In . SVG Version: 6.00 Build 0)  -->
<svg version="1.1" id="Capa_1" xmlns="http://www.w3.org/2000/svg" xmlns:xlink="http://www.w3.org/1999/xlink" x="0px" y="0px"
	 viewBox="0 0 169.9 304.9" style="enable-background:new 0 0 169.9 304.9;" xml:space="preserve">
<style type="text/css">
	.st0{fill:#373737;stroke:#373737;stroke-width:9;stroke-miterlimit:10;}
</style>
<g>
	<path class="st0" d="M108.2,296.9H46V167.3H11.8v-59.4H46V74.5C46,43.8,65.2,8,119.3,8c19.1,0,33.1,1.8,33.7,1.9l5.7,0.7l-1.4,55.7
		l-6.3-0.1c0,0-14.2-0.1-29.7-0.1c-11.5,0-13.1,2.8-13.1,14.2v27.6h50.9l-2.8,59.5h-48.1L108.2,296.9L108.2,296.9L108.2,296.9z
		 M58.9,284h36.5V154.5H144l1.6-33.8H95.3V80.2c0-13.4,3.1-27,25.9-27c9.2,0,17.9,0,23.5,0.1l0.8-31.3c-5.7-0.5-15.1-1.2-26.2-1.2
		c-44.5,0-60.4,27.7-60.4,53.6v46.3H24.6v33.8h34.2L58.9,284L58.9,284L58.9,284z"/>
</g>
</svg>
