<?xml version="1.0" encoding="utf-8"?>
<!-- Generator: Adobe Illustrator 22.0.0, SVG Export Plug-In . SVG Version: 6.00 Build 0)  -->
<svg version="1.1" id="Capa_1" xmlns="http://www.w3.org/2000/svg" xmlns:xlink="http://www.w3.org/1999/xlink" x="0px" y="0px"
	 viewBox="0 0 58.2 58.2" style="enable-background:new 0 0 58.2 58.2;" xml:space="preserve">
<style type="text/css">
	.st0{fill:#373737;}
</style>
<path class="st0" d="M50.1,15c-0.2-0.5-0.6-2.9-1.1-3.1l-7.7-2.8c-0.7-0.2-1.4-0.2-2,0.2c0,0-2.2,1.4-2.6,1.4h-5.1
	c0.1,0.1,0.1,0.2,0.1,0.4c0.1,0.2,0.1,0.4,0.1,0.6c0,1.8-1.7,3.3-3.6,2.9c-1.2-0.2-2.2-1.1-2.4-2.3c-0.1-0.5-0.1-0.9,0-1.3
	c0-0.1,0.1-0.2,0.1-0.3h-4.1c-0.5,0-2.9-1.4-2.9-1.4c-0.6-0.4-1.3-0.5-2-0.2l-7.7,2.8C8.6,12,8.2,14.5,8,15C5.7,19.3-5.8,43,3.7,49
	c0.7,0.4,1.6,0.3,2.2-0.2L15,41c1.3-1.1,2.9-1.7,4.6-1.7h9.5h9.4c1.7,0,3.3,0.6,4.6,1.7l9.1,7.8c0.6,0.5,1.5,0.6,2.2,0.2
	C63.9,43,52.4,19.3,50.1,15z M13.8,24.3c-2.2,0-4-1.8-4-4c0-2.2,1.8-4,4-4c2.2,0,4,1.8,4,4C17.8,22.5,16,24.3,13.8,24.3z M28,31.2
	c0,0.4-0.3,0.7-0.7,0.7H24v3.3c0,0.4-0.3,0.7-0.7,0.7h-2.6c-0.4,0-0.7-0.3-0.7-0.7v-3.3h-3.3c-0.4,0-0.7-0.3-0.7-0.7v-2.6
	c0-0.4,0.3-0.7,0.7-0.7H20v-3.3c0-0.4,0.3-0.7,0.7-0.7h2.6c0.4,0,0.7,0.3,0.7,0.7v3.3h3.3c0.4,0,0.7,0.3,0.7,0.7V31.2z M43.8,14.3
	c1.1,0,2,0.9,2,2c0,1.1-0.9,2-2,2s-2-0.9-2-2C41.8,15.2,42.7,14.3,43.8,14.3z M36.8,34.3c-2.2,0-4-1.8-4-4c0-2.2,1.8-4,4-4
	c2.2,0,4,1.8,4,4C40.8,32.5,39,34.3,36.8,34.3z M39.8,22.3c-1.1,0-2-0.9-2-2c0-1.1,0.9-2,2-2s2,0.9,2,2
	C41.8,21.4,40.9,22.3,39.8,22.3z M43.8,26.3c-1.1,0-2-0.9-2-2c0-1.1,0.9-2,2-2s2,0.9,2,2C45.8,25.4,44.9,26.3,43.8,26.3z M47.8,22.3
	c-1.1,0-2-0.9-2-2c0-1.1,0.9-2,2-2s2,0.9,2,2C49.8,21.4,48.9,22.3,47.8,22.3z"/>
</svg>
