<?xml version="1.0" encoding="utf-8"?>
<!-- Generator: Adobe Illustrator 22.0.0, SVG Export Plug-In . SVG Version: 6.00 Build 0)  -->
<svg version="1.1" id="Camada_1" xmlns="http://www.w3.org/2000/svg" xmlns:xlink="http://www.w3.org/1999/xlink" x="0px" y="0px"
	 viewBox="0 0 541 540" style="enable-background:new 0 0 541 540;" xml:space="preserve">
<style type="text/css">
	.st0{fill:#373737;stroke:#373737;stroke-width:6;stroke-miterlimit:10;}
</style>
<path class="st0" d="M268.5,2C122,2,2,123.1,2,269.5C2,415.2,120.9,535,268.5,535C415.9,535,535,415.4,535,269.5
	C535,123.1,415,2,268.5,2z M315.3,499.1c-15,3.1-30.9,4.7-46.8,4.7s-31.9-1.6-46.8-4.7V426c0-17.5,4.7-23.7,10.9-32.2
	c3.2-3.6,5.1-6.9,19.4-28.4l-24-3.7c-61.8-9.1-86.2-41.2-95.9-66.2c-12.5-33.4-5.9-75.3,16.6-101.8c3.4-4.1,6.2-10.9,3.7-18.1
	c-4.7-14.4-4.1-37.2-0.9-45.9c16.6,2.4,33.6,14.3,47.8,22.8c6.6,3.9,10,2.8,13.1,3.1c11.5-2.4,29.3-8.1,56.5-8.1
	c16.9,0,34.7,2.5,52.2,7.5c3.1-0.1,8.1,2.6,16.9-2.5c14.9-9.1,31.3-20.5,47.8-22.8c3.1,8.7,3.7,31.5-0.9,45.9
	c-2.5,7.2,0.3,14.1,3.7,18.1c22.5,26.5,29,68.4,16.6,101.8c-9.7,25-34,57.2-95.9,66.2l-24,3.7c14.8,22.3,16.3,24.9,19.4,28.4
	c6.2,8.4,10.9,14.7,10.9,32.2L315.3,499.1L315.3,499.1z M346.6,490v-64c0-17.8-3.7-29.7-8.7-38.4c47.5-12.8,81.2-40.9,96.2-81.2
	c15.9-42.5,8.7-93.1-17.8-128c4.7-20.9,4.7-54.3-6.6-70c-5-6.9-11.9-10.6-20.6-10.6c-0.3,0-0.3,0-0.3,0
	c-24.3,1.4-43.3,13.5-63.7,25.9c-18.7-5-37.8-7.5-56.8-7.5c-19.4,0-38.7,2.8-55.9,7.5c-21.5-13-40.4-24.7-65.3-25.9
	c-7.8,0-14.7,3.7-19.7,10.6c-11.2,15.6-11.2,49-6.6,70c-26.5,35-33.7,85.9-17.8,128c15,40.3,48.7,68.4,96.2,81.2
	c-3.9,6.8-7,15.5-8.1,27.4c-9.6,3.3-17.9,4.4-25.6,2.1c-8.1-2.4-14.5-7.8-20-17.2c-12.4-20.8-33.5-37.9-57.6-35.6l2.7,31.1
	c11.1-1,22.2,10.7,28,20.5c9.5,16,22.3,26.4,38,31.1c11.7,3.4,22.4,3.3,33.9,0.9V490c-91-31.9-157.3-118.7-157.3-220.5
	c0-129.3,106-236.3,235.3-236.3s235.3,107,235.3,236.3C503.8,371.4,437.5,458.2,346.6,490z"/>
</svg>
