<?xml version="1.0" encoding="utf-8"?>
<!-- Generator: Adobe Illustrator 22.0.0, SVG Export Plug-In . SVG Version: 6.00 Build 0)  -->
<svg version="1.1" id="Capa_1" xmlns="http://www.w3.org/2000/svg" xmlns:xlink="http://www.w3.org/1999/xlink" x="0px" y="0px"
	 viewBox="0 0 525 522" style="enable-background:new 0 0 525 522;" xml:space="preserve">
<style type="text/css">
	.st0{fill:#373737;stroke:#373737;stroke-width:2;stroke-miterlimit:10;}
</style>
<g>
	<g>
		<g>
			<path class="st0" d="M366.8,12.2H158.3C78.6,12.2,13.8,77,13.8,156.7v208.4c0,79.8,64.8,144.6,144.5,144.6h208.4
				c79.7,0,144.5-64.8,144.5-144.5V156.7C511.3,77,446.5,12.2,366.8,12.2z M472.5,365.3c0,58.3-47.4,105.6-105.6,105.6H158.3
				c-58.2,0-105.6-47.4-105.6-105.6V156.7c0-58.2,47.4-105.6,105.6-105.6h208.4c58.3,0,105.6,47.4,105.6,105.6L472.5,365.3
				L472.5,365.3z"/>
		</g>
	</g>
	<g>
		<g>
			<path class="st0" d="M262.5,126.9c-74,0-134.1,60.2-134.1,134.1s60.2,134.1,134.1,134.1S396.7,335,396.7,261
				S336.5,126.9,262.5,126.9z M262.5,356.2c-52.5,0-95.2-42.8-95.2-95.2s42.8-95.2,95.2-95.2s95.2,42.8,95.2,95.2
				S315,356.2,262.5,356.2z"/>
		</g>
	</g>
	<g>
		<g>
			<circle class="st0" cx="398.6" cy="125" r="19.4"/>
		</g>
	</g>
</g>
</svg>
