<?xml version="1.0" encoding="utf-8"?>
<!-- Generator: Adobe Illustrator 22.0.0, SVG Export Plug-In . SVG Version: 6.00 Build 0)  -->
<svg version="1.1" id="Capa_1" xmlns="http://www.w3.org/2000/svg" xmlns:xlink="http://www.w3.org/1999/xlink" x="0px" y="0px"
	 viewBox="0 0 97.4 97.4" style="enable-background:new 0 0 97.4 97.4;" xml:space="preserve">
<style type="text/css">
	.st0{fill:#373737;}
	.st1{font-family:'Pacifico-Regular';}
	.st2{font-size:12px;}
	.st3{fill:#373737;stroke:#000000;stroke-width:0.5;stroke-miterlimit:10;}
	.st4{font-family:'AlwaysTogether';}
</style>
<g>
	<path class="st0" d="M95.4,71.2c-0.1-0.1-0.2-0.1-0.4-0.1h-92c-0.1,0-0.3,0.1-0.4,0.1c-0.1,0.1-0.1,0.2-0.1,0.3
		c0,0.1,1.4,7.6,12.2,7.6h68.6c10.8,0,12.2-7.5,12.2-7.6C95.5,71.4,95.5,71.3,95.4,71.2z M54.7,76.5H43.4c-0.7,0-1.3-0.6-1.3-1.3
		v-1.5H56v1.5C56,75.9,55.4,76.5,54.7,76.5z"/>
	<path class="st0" d="M86.9,16.7H10.5c-1.1,0-2,0.9-2,2v46.9c0,1.1,0.9,2,2,2h76.4c1.1,0,2-0.9,2-2V18.7
		C88.9,17.6,88,16.7,86.9,16.7z M48.7,67c-1.6,0-2.9-1.3-2.9-2.9s1.3-2.9,2.9-2.9s2.9,1.3,2.9,2.9S50.3,67,48.7,67z M81.9,60.6H15.5
		V23.7h66.4V60.6z"/>
	<g>
		<text transform="matrix(1 0 0 1 40.1667 36.8333)" class="st0 st1 st2">code</text>
		<text transform="matrix(1 0 0 1 35.3405 38.1665)" class="st3 st4 st2">&lt;</text>
		<text transform="matrix(1 0 0 1 63.1739 38.1665)" class="st3 st4 st2">&gt;</text>
		<text transform="matrix(1 0 0 1 20.3333 46.6925)" class="st0 st1 st2">your</text>
		<text transform="matrix(1 0 0 1 43.088 55.5263)" class="st0 st1 st2">future</text>
	</g>
</g>
</svg>
