<?xml version="1.0" encoding="utf-8"?>
<!-- Generator: Adobe Illustrator 22.0.0, SVG Export Plug-In . SVG Version: 6.00 Build 0)  -->
<svg version="1.1" id="Capa_1" xmlns="http://www.w3.org/2000/svg" xmlns:xlink="http://www.w3.org/1999/xlink" x="0px" y="0px"
	 viewBox="0 0 310.7 305.7" style="enable-background:new 0 0 310.7 305.7;" xml:space="preserve">
<style type="text/css">
	.st0{fill:#373737;stroke:#373737;stroke-width:7;stroke-miterlimit:10;}
</style>
<g>
	<path class="st0" d="M85.6,296.9H15.5V100.2h70.1V296.9z M28.4,284h44.4V113H28.4V284z M50.6,87.9C28.8,87.9,11,70.2,11,48.4
		S28.8,8.8,50.6,8.8s39.6,17.7,39.6,39.5C90.2,70.2,72.4,87.9,50.6,87.9z M50.6,21.7c-14.7,0-26.7,12-26.7,26.7s12,26.7,26.7,26.7
		s26.7-12,26.7-26.7S65.3,21.7,50.6,21.7z M299.7,296.9h-70v-95.8c0-28.7-3.5-42.3-23.3-42.3c-20,0-27.9,11.4-27.9,40.8V297h-69.9
		V100.2h67.6v13.9c10.8-10.1,27.1-18.5,48.4-18.5c66.1,0,75,47.5,75,94L299.7,296.9L299.7,296.9z M242.6,284h44.3v-94.4
		c0-50.1-10.4-81.1-62.1-81.1c-25.5,0-42,14.1-48.4,26.3l-1.8,3.4h-11.1v-25.1h-41.9v171h44.2v-84.6c0-14.7,0-53.6,40.7-53.6
		c36.2,0,36.2,35.9,36.2,55.2L242.6,284L242.6,284L242.6,284z"/>
</g>
</svg>
