<?xml version="1.0" encoding="utf-8"?>
<!-- Generator: Adobe Illustrator 22.0.0, SVG Export Plug-In . SVG Version: 6.00 Build 0)  -->
<svg version="1.1" xmlns="http://www.w3.org/2000/svg" xmlns:xlink="http://www.w3.org/1999/xlink" x="0px" y="0px"
	 viewBox="0 0 533.3 533.3" style="enable-background:new 0 0 533.3 533.3;" xml:space="preserve">
<style type="text/css">
	.st0{fill:#373737;}
</style>
<g id="Capa_1">
	<g>
		<path class="st0" d="M336.5,417.6c0-0.9-0.3-1.8-0.8-2.5c-0.6-0.6-1.4-1-2.3-0.9c-2,0-3.7,1.1-5,3.5l0,0c-1.4,2.6-2.1,5.5-2.1,8.4
			v0.2c2.7-0.5,5.3-1.7,7.5-3.4C335.4,421.6,336.4,419.7,336.5,417.6z"/>
		<path class="st0" d="M174.1,264.9c0-3.2-0.7-4.9-2-4.9c-1,0-2.1,1.6-3.6,4.9c-1.7,4.2-3.1,8.5-4.2,12.9c-1.4,5.3-2.6,11-3.6,16.9
			c4-4.5,7.3-9.6,9.8-15.1C172.9,274.4,174.1,269.5,174.1,264.9z"/>
		<path class="st0" d="M336.3,301.1c0-0.9-0.3-1.8-0.8-2.4c-0.6-0.6-1.4-1-2.3-0.9c-2,0-3.6,1.1-5,3.4c-1.4,2.5-2.1,5.4-2,8.3v0.2
			c2.7-0.5,5.2-1.7,7.4-3.4C335.2,305.1,336.2,303.2,336.3,301.1z"/>
		<path class="st0" d="M264.2,422.7c-1.1,2.7-1.7,5.6-1.7,8.5c0,1.7,0.3,2.9,1,3.7c0.7,0.8,1.7,1.3,2.8,1.2c1.2,0,2.3-0.7,3.4-2.1
			c1.2-1.7,2-3.6,2.3-5.6l3-14.8c-2.3,0.1-4.5,1-6.2,2.5C266.7,418,265.1,420.2,264.2,422.7z"/>
		<path class="st0" d="M314.2,382.2c0-4.1-0.8-6.1-2.3-6.1c-1.2,0-2.6,2.2-4.2,6.7c-1.8,5.4-3.2,11-4.1,16.6
			c-1.1,6.3-1.8,12.6-1.9,19c3.7-6,6.7-12.3,9.1-18.9C313.1,393.2,314.2,387.4,314.2,382.2z"/>
		<path class="st0" d="M180.4,417.6c0-0.9-0.3-1.8-0.8-2.5c-0.6-0.6-1.4-1-2.3-0.9c-2,0-3.7,1.1-5,3.5v0c-1.4,2.6-2.1,5.5-2.1,8.4
			v0.2c2.7-0.5,5.3-1.7,7.5-3.4C179.3,421.6,180.4,419.7,180.4,417.6z"/>
		<path class="st0" d="M234.2,279.1c1.4-2.9,2.2-6,2.4-9.2c0-3.1-0.6-4.7-1.8-4.7c-0.8,0-1.7,1-2.6,3c-1.2,2.7-2.2,5.4-2.8,8.3
			c-0.9,3.9-1.7,7.8-2.2,11.8C230.1,285.7,232.5,282.6,234.2,279.1z"/>
		<path class="st0" d="M159.5,381c0-3.3-0.7-4.9-2-4.9c-0.9,0-2.1,1.7-3.5,4.9c-1.7,4.2-3.2,8.6-4.2,13c-1.4,5.4-2.6,11.1-3.6,17.1
			c4.1-4.5,7.4-9.7,9.9-15.3C158.1,391.2,159.3,386.1,159.5,381z"/>
		<path class="st0" d="M452.8,182.2l-35.6,9.8v-75.3c0-46-76.6-83.3-171.1-83.3S75,70.6,75,116.7v300c0,46,76.6,83.3,171.1,83.3
			s171.1-37.3,171.1-83.3v-50c49.8-21.7,87.3-44.2,99.7-100C527.5,160.5,493.1,175.2,452.8,182.2z M354.2,434.5
			c-2.4,2.7-5.2,5-8.4,6.7c-3.5,2-7.6,3.1-11.6,3.1c-5.6,0-10-1.5-13.1-4.6c-0.6-0.6-1.1-1.2-1.5-1.8c-1.4,1.3-2.9,2.6-4.5,3.7
			c-2.7,1.8-5.9,2.8-9.2,2.7c-4.7,0-8.2-2.2-10.5-6.5c-0.2-0.4-0.4-0.9-0.7-1.4c-1.6,1.8-3.4,3.5-5.4,5c-2.5,1.9-4.9,2.8-7.2,2.8
			c-1.8,0-3.5-0.7-4.9-1.8c-1.5-1.3-2.7-3-3.3-4.9c-2.8,4.5-6.3,6.8-10.6,6.8c-3.1,0.1-6-1.2-8-3.6c-0.4-0.5-0.8-1.1-1.1-1.7
			c-1,0.9-2.1,1.8-3.2,2.6c-2.7,1.8-5.8,2.8-9.1,2.7c-2.7,0-4.8-0.8-6.2-2.4c-1.4-1.6-2.1-3.9-2.1-6.9c0.2-2.7,0.5-5.4,1.1-8.1
			c0.5-2.3,0.9-4.6,1-7c0-0.9-0.3-1.3-0.9-1.3c-0.7,0-1.7,0.9-3,2.7c-1.5,2.2-2.8,4.6-3.9,7.1c-1.3,3-2.3,6.1-3.1,9.3
			c-0.6,2.6-1.3,4.3-2.1,5.2c-0.8,0.9-2,1.3-3.7,1.3c-1.7,0-3.3-1-4-2.5c-0.9-1.9-1.4-4-1.3-6.2c0.1-3,0.3-5.9,0.8-8.9
			c0.4-3.4,0.6-5.7,0.6-6.8c0-0.9-0.3-1.3-0.9-1.3c-0.8,0-1.8,1-3.1,2.9c-1.4,2.3-2.6,4.8-3.6,7.4c-1.1,2.9-2,5.9-2.8,8.9
			c-0.6,2.5-1.3,4.2-2.1,5.1c-0.8,0.9-2,1.3-3.7,1.3c-2,0-3.5-1.1-4.3-3.2c-0.3-0.7-0.5-1.5-0.7-2.5c-1.3,1-2.7,1.9-4.2,2.7
			c-3.5,2-7.6,3.1-11.6,3.1c-5.6,0-10-1.5-13.1-4.6c-2.3-2.3-3.8-5.2-4.4-8.8c-0.9,0.1-1.9,0.2-3,0.2c-1.9-0.1-3.7-0.3-5.6-0.7
			c0.7,3.3,1.3,7,1.7,11.1c0.4,3.3,0.7,6.7,0.7,10c0,5.8-0.9,10.2-2.8,13.3s-4.4,4.6-7.4,4.6c-3.9,0-6.6-2.7-8.3-8.2
			c-1.6-5.5-2.5-13.8-2.5-24.8c0-10.5,1.1-21.1,3.3-31.4c2.2-10.6,5.3-19.4,9.2-26.3c3.9-7,8.2-10.4,12.9-10.4
			c2.4,0,4.7,1.3,5.9,3.4c1.4,2.3,2.1,5.3,2.1,9.1c0,12.6-7.5,26.4-22.6,41.3c-0.5,4.6-0.8,9.2-0.8,13.9c0,5.5,0.2,11.2,0.6,17
			c0.4,5.8,1,8.7,1.9,8.7c1.6,0,2.4-2.8,2.4-8.4c0-4.1-0.3-8.1-0.8-12.2c-0.6-3.9-1.3-8.1-2.3-12.4c0-0.9,0.3-1.8,0.7-2.7
			c0.5-1,1.1-2,1.9-2.8c0.5-0.7,1.2-1.1,2-1.2c1.1,0,2.4,0.1,3.9,0.2c0.6,0.1,1.1,0.1,1.7,0.1c1.8,0,3.6-0.1,5.5-0.3
			c0.4-1.7,1-3.4,1.8-5c1.4-3.1,3.7-5.7,6.5-7.6c2.8-1.9,6-2.9,9.4-2.8c3.1,0,5.6,0.9,7.5,2.8c1.9,1.8,2.8,4.4,2.8,7.5
			c0,3.6-1.4,7.1-4,9.5c-2.7,2.7-7.2,4.8-13.5,6.4c1.3,2.5,3.9,3.7,7.7,3.7c2.4,0,5.2-0.8,8.3-2.5c2.2-1.2,4.3-2.8,6.1-4.6
			c0.1-6.2,1.1-12.4,3-18.3c0.4-1.4,1.2-2.6,2.4-3.4c1.4-0.8,3-1.2,4.6-1.1c0.8-0.1,1.6,0.1,2.3,0.4c0.5,0.4,0.7,0.9,0.7,1.5
			c-0.2,2-0.6,3.9-1.2,5.8c-0.5,2.1-1,4-1.3,5.6c-0.4,2-0.6,3.9-0.8,5.9c1.2-3.8,3-7.3,5.2-10.6c1.7-2.5,3.8-4.7,6.2-6.5
			c1.7-1.3,3.8-2,6-2.1c1.9,0,3.2,0.4,4,1.3c0.8,0.9,1.2,2.2,1.2,4c0,1.8-0.5,4.8-1.5,9.3c-0.4,1.9-0.7,3.4-0.9,4.3
			c2.7-6.6,5.7-11.4,8.9-14.4c3.3-3,6.3-4.5,9.2-4.5c3.5,0,5.2,1.7,5.2,5.2c0,2.1-0.6,5.9-1.8,11.4c-1,4.7-1.5,7.8-1.5,9.3
			c0,2.2,0.8,3.2,2.3,3.2c1.1,0,2.3-0.7,3.8-2c1-0.9,1.9-1.8,2.8-2.8c0.1-4.1,1.1-8.1,3-11.7c1.9-3.7,4.6-6.9,7.9-9.3
			c3-2.3,6.7-3.5,10.5-3.5c1.2,0,2,0.2,2.4,0.7c0.5,0.7,0.9,1.6,1,2.5c1.2-0.2,2.3-0.3,3.5-0.3c2.6,0,4,0.9,4,2.8
			c-0.2,2.7-0.6,5.4-1.2,8.1c-1.2,6.2-1.9,10.5-1.9,12.9c0,0.7,0.2,1.4,0.6,1.9c0.4,0.5,1,0.7,1.6,0.7c1,0,2.3-0.7,3.7-2
			c1.7-1.6,3.3-3.4,4.8-5.2c-0.3-2.2-0.5-4.5-0.5-7.1c0.1-7.5,1-15,2.5-22.4c1.7-8.4,4.2-15.6,7.5-21.6c3.3-6,7.2-9,11.8-9
			c2.6,0,4.6,1.2,6.1,3.6c1.5,2.4,2.2,5.8,2.2,10.3c0,6.4-1.8,13.8-5.3,22.2c-3.8,8.9-8.7,17.3-14.4,25.1c0.4,2.2,1,3.8,1.9,4.7
			c0.9,0.9,2.1,1.5,3.4,1.4c2.1,0,4.1-0.6,5.8-1.9c1.2-1,2.3-2,3.3-3c-0.2-1.1-0.2-2.2-0.2-3.4c0-3.6,0.8-7.1,2.3-10.4
			c1.4-3.1,3.7-5.7,6.5-7.6c2.8-1.9,6-2.9,9.4-2.8c3.1,0,5.6,0.9,7.5,2.8c1.9,1.8,2.8,4.4,2.8,7.5c0,3.6-1.4,7.1-4,9.5
			c-2.7,2.7-7.2,4.8-13.5,6.4c1.3,2.5,3.9,3.7,7.7,3.7c2.4,0,5.2-0.8,8.3-2.5c3.1-1.7,5.8-3.9,8-6.6c0.5-0.7,1.3-1.1,2.2-1.2
			c0.7,0,1.3,0.4,1.7,1c0.4,0.8,0.7,1.7,0.6,2.7C355.8,431.7,355.2,433.3,354.2,434.5z M159.1,335.9c0.4,5.8,1,8.7,1.8,8.7
			c1.6,0,2.4-2.8,2.4-8.3c0-4-0.3-8.1-0.8-12c-0.6-3.9-1.3-8-2.3-12.3c0-0.9,0.3-1.8,0.7-2.6c0.5-1,1.1-2,1.9-2.8
			c0.5-0.6,1.2-1.1,2-1.2c1.1,0,2.3,0,3.8,0.2c0.6,0.1,1.1,0.1,1.7,0.1c2.3,0,4.6-0.2,6.8-0.5c0,0,0,0,0,0c0.6-3.6,1.5-7.1,2.6-10.6
			c0.4-1.4,1.1-2.6,2.2-3.4c0.9-0.7,2.5-1,4.5-1c0.9-0.1,1.7,0.1,2.4,0.6c0.5,0.4,0.7,1,0.7,1.7c-0.2,1.5-0.5,2.9-0.9,4.3
			c-0.5,2-1,3.7-1.3,5.3c-1.1,5.6-1.6,9.3-1.6,11.2c-0.1,0.8,0.1,1.6,0.4,2.4c0.3,0.5,0.8,0.7,1.3,0.7c0.8,0,1.8-0.8,3-2.4
			c1.6-2.3,2.8-4.7,3.8-7.3c1.6-3.9,2.9-7.9,4-12c0.3-1.3,0.9-2.5,1.9-3.4c1.2-0.8,2.6-1.1,4-1c0.9-0.1,1.8,0.1,2.6,0.4
			c0.5,0.4,0.8,1,0.7,1.6c0,1.3-0.7,5-2,10.9c-1.5,6.8-2.2,11-2.2,12.6c-0.1,0.8,0.2,1.7,0.6,2.4c0.4,0.5,1,0.9,1.7,0.8
			c1.1,0,2.3-0.7,3.8-2c2.1-2,4.1-4.1,5.9-6.4c0.4-0.5,0.9-0.9,1.5-1c-0.1-1.5-0.2-3-0.2-4.6c0-2.3,0.1-4.6,0.2-7h-3.1
			c-1.6,0-2.6-0.3-3.2-0.9c-0.6-0.8-0.9-1.8-0.8-2.7c0-2.9,1.2-4.4,3.5-4.4h4.5c0.8-5.4,2.2-10.7,4.1-15.8c1.8-4.8,4-8.5,6.6-11.4
			c2.6-2.8,5.4-4.2,8.4-4.2c2.1,0,4.1,1.1,5.2,2.9c1.3,2.2,2,4.7,1.9,7.3c0,8.1-3.4,15.2-10.2,21.2h8.8c0.6-0.1,1.3,0.1,1.8,0.6
			c0.4,0.6,0.6,1.3,0.6,2c0,3.6-3,5.4-8.9,5.4h-9.6c-0.1,2.6-0.2,4.7-0.2,6.1c0,5.4,0.6,9.3,1.9,11.5c1.3,2.2,3.3,3.3,6.1,3.3
			c2.2,0,4.3-0.7,6-2c1.5-1.3,3-2.7,4.4-4.1c0.2-6.2,1.4-12.2,3.4-18.1c0.4-1.3,1.2-2.5,2.2-3.4c0.9-0.7,2.5-1,4.5-1
			c0.9-0.1,1.7,0.1,2.4,0.6c0.5,0.4,0.7,1,0.7,1.7c-0.2,1.5-0.5,2.9-0.9,4.3c-0.5,2-1,3.7-1.3,5.3c-1.1,5.6-1.6,9.3-1.6,11.2
			c-0.1,0.8,0.1,1.6,0.4,2.4c0.3,0.5,0.8,0.7,1.3,0.7c0.8,0,1.8-0.8,3-2.4c1.6-2.3,2.8-4.7,3.8-7.3c1.6-3.9,2.9-7.9,4-12
			c0.3-1.3,0.9-2.5,2-3.4c1.2-0.8,2.6-1.1,3.9-1c0.9-0.1,1.7,0,2.5,0.4c0.5,0.4,0.8,1,0.7,1.6c0,1.3-0.7,5-2,10.9
			c-1.5,6.8-2.2,11-2.2,12.6c-0.1,0.8,0.2,1.7,0.6,2.4c0.4,0.5,1,0.9,1.7,0.8c1.1,0,2.3-0.7,3.8-2c1.4-1.3,2.7-2.7,4-4.2
			c0.1-6.2,1.1-12.3,2.9-18.2c0.4-1.4,1.2-2.6,2.4-3.4c1.4-0.8,3-1.2,4.6-1.1c0.8-0.1,1.5,0.1,2.2,0.4c0.5,0.4,0.7,0.9,0.6,1.5
			c-0.2,1.9-0.6,3.9-1.2,5.7c-0.5,2.1-1,4-1.3,5.6c-0.4,2-0.6,3.9-0.8,5.9c1.4-4,3.4-7.7,5.9-11.2c2.2-2.9,4.3-4.9,6.4-6.1
			c1.7-1.1,3.7-1.7,5.8-1.8c3.5,0,5.2,1.7,5.2,5.2c-0.1,1.7-0.4,3.4-0.7,5c-0.3,1.3-0.5,2.6-0.6,4c0,1.9,0.7,2.8,2,2.8
			c0.6,0,1.2-0.2,1.8-0.5c0.4-2.2,1-4.3,2-6.2c1.4-3,3.7-5.6,6.4-7.5c2.7-1.9,6-2.9,9.3-2.8c3.1,0,5.6,0.9,7.4,2.7s2.8,4.3,2.8,7.5
			c0,3.6-1.4,7-3.9,9.5c-2.6,2.6-7.1,4.7-13.4,6.3c1.3,2.4,3.9,3.7,7.6,3.7c2.4,0,5.1-0.8,8.2-2.5c3-1.7,5.7-3.9,7.9-6.6
			c0.5-0.7,1.3-1.1,2.2-1.1c0.7,0,1.3,0.4,1.6,1c0.4,0.8,0.6,1.7,0.6,2.7c0,2.1-0.5,3.8-1.5,4.9c-2.3,2.7-5.2,4.9-8.3,6.6
			c-3.5,2-7.5,3-11.5,3c-5.6,0-9.9-1.5-13-4.5c-2.2-2.1-3.5-4.8-4.2-8c-1.6,0.6-3.3,1-5,1c-2.8,0-5-0.7-6.4-2.2
			c-1.5-1.5-2.3-3.7-2.2-5.8c0-0.8,0.1-1.6,0.2-2.4c0.1-1.1,0.2-1.8,0.2-2.2c0-0.9-0.3-1.3-0.9-1.3c-0.8,0-1.8,0.9-3.1,2.7
			c-1.5,2.2-2.8,4.6-3.9,7.1c-1.3,3-2.3,6.1-3.1,9.3c-0.6,2.5-1.3,4.2-2,5.1s-2,1.3-3.6,1.3c-2,0-3.4-1.1-4.3-3.2
			c-0.2-0.6-0.4-1.3-0.6-2.1c-1,0.9-2.1,1.8-3.3,2.6c-2.6,1.8-5.8,2.8-9,2.7c-2.6,0-4.4-1-5.6-3c-1.2-2-1.8-4.7-1.8-8.3
			c-0.9,3.6-2.3,6.4-4.1,8.3c-1.8,1.9-3.7,2.9-5.8,2.9c-2.3,0-4.3-1.1-5.8-3.3c-0.5-0.8-0.9-1.6-1.3-2.5c-1.2,1.1-2.4,2.1-3.7,3
			c-2.7,1.8-5.9,2.7-9.2,2.7c-7.1,0-11.8-3.3-14.2-9.9c-0.1,0.1-0.2,0.3-0.3,0.4c-2.1,2.7-4.6,5-7.3,6.9c-2.6,1.8-5.8,2.8-9,2.7
			c-2.6,0-4.4-1-5.6-3c-1.2-2-1.8-4.7-1.8-8.3c-0.9,3.6-2.3,6.4-4.1,8.3s-3.7,2.9-5.8,2.9c-2.4,0-4.3-1.1-5.9-3.3
			c-1.6-2.5-2.4-5.3-2.3-8.3c0-0.6,0-1.2,0-1.9c-1.1,0.2-2.4,0.3-3.8,0.3c-1.9-0.1-3.7-0.3-5.5-0.7c0.7,3.3,1.3,6.9,1.7,11
			c0.4,3.3,0.7,6.6,0.7,9.9c0,5.7-0.9,10.1-2.8,13.2c-1.9,3-4.3,4.5-7.4,4.5c-3.8,0-6.6-2.7-8.2-8.1s-2.4-13.6-2.4-24.6
			c0-10.4,1.1-20.8,3.3-31.1c2.2-10.5,5.2-19.2,9.1-26.1c3.9-6.9,8.1-10.4,12.7-10.3c2.4,0,4.7,1.2,5.9,3.4c1.4,2.2,2.1,5.2,2.1,9
			c0,12.5-7.5,26.1-22.4,40.8c-0.5,4.6-0.8,9.1-0.8,13.7C158.6,324.5,158.8,330.2,159.1,335.9z M218.6,206.8
			c0.6-0.1,1.3,0.1,1.8,0.6c0.4,0.6,0.6,1.3,0.6,2c0,3.6-3,5.4-8.9,5.4h-9.6c-0.1,2.6-0.2,4.7-0.2,6.1c0,5.4,0.6,9.3,1.9,11.5
			c1.3,2.2,3.3,3.3,6.1,3.3c2.2,0,4.3-0.7,6-2c1.7-1.4,3.4-3,4.9-4.6l0-2c0-8.7,0.9-17.5,2.6-26c1.7-9,4.2-16.6,7.6-22.8
			c3.3-6.2,7.3-9.2,12-9.2c2.4,0,4.7,1.2,6,3.2c1.5,2.1,2.3,4.9,2.3,8.3c0,5.5-1.6,11.1-4.8,17c-3.2,5.9-8.4,12.7-15.6,20.6
			c-0.2,2.8-0.2,5.7-0.2,8.7c1.5-4,3.4-7.8,5.9-11.2c1.7-2.5,3.9-4.6,6.5-6.2c1.8-1.1,3.8-1.8,5.9-1.9c3.5,0,5.3,1.8,5.3,5.3
			c0,2.1-0.6,5.9-1.8,11.4c-1,4.7-1.5,7.8-1.5,9.3c0,2.2,0.8,3.3,2.4,3.2c1.1,0,2.4-0.7,3.9-2c1.1-1,2.1-2.1,3.1-3.1
			c-0.1-1-0.2-2.1-0.2-3.2c0-3.6,0.8-7.2,2.4-10.4c1.5-3.1,3.7-5.7,6.5-7.7c2.8-1.9,6.1-2.9,9.5-2.8c3.1,0,5.6,0.9,7.5,2.8
			c1.9,1.9,2.8,4.4,2.8,7.6c0,3.6-1.4,7.1-4,9.6c-2.7,2.7-7.2,4.8-13.6,6.4c1.3,2.5,3.9,3.7,7.7,3.7c2.4,0,5.2-0.9,8.3-2.6
			c3.1-1.7,5.8-4,8.1-6.7c0.5-0.7,1.3-1.1,2.2-1.1c0.7,0,1.4,0.4,1.7,1c0.4,0.8,0.7,1.7,0.6,2.7c0,2.2-0.5,3.8-1.5,5
			c-2.4,2.7-5.3,5-8.5,6.7c-3.6,2-7.6,3.1-11.7,3.1c-5.7,0-10.1-1.5-13.2-4.6c-0.6-0.6-1.2-1.3-1.7-2c-1.5,1.4-3,2.7-4.7,3.9
			c-2.6,1.8-5.8,2.8-9,2.8c-2.8,0-4.8-0.8-6.2-2.4s-2.1-3.9-2.1-6.9c0.2-2.7,0.5-5.4,1.1-8.1c0.5-2.3,0.9-4.7,1.1-7.1
			c0-0.9-0.3-1.3-0.9-1.3c-0.7,0-1.7,0.9-3,2.7c-1.5,2.3-2.8,4.7-3.9,7.2c-1.3,3-2.4,6.2-3.2,9.4c-1,4.3-3.6,6.5-7.6,6.5
			c-1.6,0-2.7-0.6-3.2-1.7c-0.4-0.9-0.7-2.5-0.7-4.7c-1,0.9-2,1.7-3.2,2.5c-2.7,1.8-5.9,2.7-9.2,2.7c-10.7,0-16-7.5-16-22.5
			c0-2.3,0.1-4.6,0.2-7h-3.1c-1.6,0-2.6-0.3-3.2-0.9c-0.6-0.8-0.9-1.8-0.8-2.7c0-2.9,1.2-4.4,3.5-4.4h4.5c0.8-5.4,2.2-10.7,4.1-15.8
			c1.8-4.8,4-8.5,6.6-11.4c2.6-2.8,5.4-4.2,8.4-4.2c2.1,0,4.1,1.1,5.2,2.9c1.3,2.2,2,4.7,1.9,7.3c0,8.1-3.4,15.2-10.2,21.2H218.6z
			 M249,373.6c-0.6-1.2-1.2-2.3-2-3.4c-0.8-1.1-1.6-2.1-2.3-2.9c-1.3,2.6-2.9,5.1-4.7,7.5c-0.2,0.3-0.4,0.5-0.7,0.8
			c-0.2,0.4-0.5,0.9-0.7,1.2c-5,6.2-9.7,9.3-14.1,9.3c-3.4,0-5.8-1.2-7.3-3.6c-1.5-2.4-2.3-5.5-2.3-9.3c0.1-3,0.4-5.9,0.9-8.8
			c0.5-3.4,1.3-6.8,2.3-10.1c0.3-1.3,0.9-2.5,1.8-3.4c0.8-0.6,2-0.9,3.7-0.9c2.6,0,3.9,0.9,3.9,2.6c0,1.3-0.5,4.2-1.5,8.9
			c-1.2,5.6-1.8,9.4-1.8,11.4c-0.1,1.2,0.1,2.4,0.6,3.5c0.4,0.8,1.2,1.3,2.1,1.2c0.9,0,2.1-0.6,3.4-1.9c0.4-0.4,0.7-0.7,1.1-1.1
			c2.3-2.7,4.4-5.6,6.3-8.5c0.9-1.5,1.9-3.5,3.1-5.9c1.2-2.5,2.3-5,3.4-7.7c1-2.2,3-3.4,6-3.4c1-0.1,2,0.1,3,0.4
			c0.5,0.2,0.9,0.7,0.8,1.2c0,0.5-0.1,1-0.3,1.4c-0.2,0.7-0.5,1.4-0.8,2c-0.8,1.4-1.3,3-1.4,4.7c0,0.9,0.3,1.8,0.8,2.5
			c0.7,1.2,1.6,2.4,2.5,3.4c1.4,1.7,2.6,3.6,3.7,5.5c0.8,1.5,1.3,3.2,1.3,4.9c0,0.7-0.1,1.4-0.2,2.1c2.5-1,5.4-3.5,8.8-7.7
			c0.5-0.7,1.3-1,2.1-1.1c0.7,0,1.3,0.3,1.6,0.9c0.4,0.8,0.6,1.6,0.6,2.5c0.1,1.7-0.4,3.4-1.5,4.7c-2.6,3.2-5,5.3-7.3,6.5
			c-2.7,1.2-5.6,1.9-8.6,1.9c-2,1.7-4.6,2.7-7.3,2.6c-2.7,0-4.7-0.6-6.1-1.9c-1.3-1-2.1-2.5-2.1-4.1c0-1.3,0.5-2.5,1.4-3.4
			c1-1,2.4-1.5,4.3-1.4c0.8,0,1.6,0.1,2.3,0.2c0.9,0.1,1.6,0.2,2,0.3C249.9,376,249.6,374.8,249,373.6z M218.6,339.3
			c0-1.7,0.8-3.4,2.1-4.5c1.5-1.2,3.3-1.9,5.2-1.8c1.6-0.1,3.3,0.4,4.6,1.4c1.2,0.9,1.8,2.4,1.8,3.9c0.1,1.8-0.6,3.6-2,4.9
			c-1.5,1.2-3.4,1.9-5.3,1.8c-2.2,0-3.8-0.5-4.8-1.5C219.1,342.4,218.5,340.9,218.6,339.3z M338.7,134.6
			c-25.8,9.9-58.7,15.4-92.6,15.4c-33.9,0-66.8-5.5-92.6-15.4c-16.5-6.3-26.5-13.1-31.8-17.9c5.3-4.8,15.3-11.6,31.8-17.9
			c25.8-9.9,58.7-15.4,92.6-15.4c33.9,0,66.8,5.5,92.6,15.4c16.5,6.3,26.5,13.1,31.8,17.9C365.2,121.4,355.2,128.2,338.7,134.6z
			 M465.4,294.2C448.5,312,429.9,318,417.2,318v-4.5v-69.8c14.4-4.5,63.2-25.3,67.2-20.8c3.9,4.6,4.1,11.2,4.1,26
			C488.4,263.8,488.4,266.7,465.4,294.2z"/>
		<path class="st0" d="M210.9,182.2c-0.8,0-1.7,1-2.7,3c-1.2,2.7-2.2,5.6-2.8,8.5c-1,4-1.7,8-2.2,12c3-2.6,5.5-5.7,7.2-9.3
			c1.5-2.9,2.3-6.1,2.4-9.4C212.7,183.8,212.1,182.2,210.9,182.2z"/>
		<path class="st0" d="M280.4,218.7c0-0.9-0.3-1.8-0.9-2.5c-0.6-0.6-1.4-1-2.3-0.9c-2,0-3.7,1.2-5,3.5c-1.5,2.6-2.2,5.5-2.1,8.4v0.2
			c2.8-0.5,5.3-1.7,7.6-3.4C279.5,222.5,280.4,220.7,280.4,218.7z"/>
		<path class="st0" d="M243.9,182.4c0.1-1.3-0.1-2.7-0.6-4c-0.4-0.9-0.9-1.4-1.6-1.4c-1,0-2.1,1.4-3.2,4.2
			c-1.5,3.7-2.6,7.4-3.4,11.3c-1.2,5.1-2.1,10.3-2.7,15.4c3.3-3.9,6.1-8.2,8.3-12.9C242.8,190.4,243.9,186.1,243.9,182.4z"/>
	</g>
</g>
<g id="Camada_2">
</g>
</svg>
