<?xml version="1.0" encoding="utf-8"?>
<!-- Generator: Adobe Illustrator 22.0.0, SVG Export Plug-In . SVG Version: 6.00 Build 0)  -->
<svg version="1.1" id="Layer_1" xmlns="http://www.w3.org/2000/svg" xmlns:xlink="http://www.w3.org/1999/xlink" x="0px" y="0px"
	 viewBox="0 0 502 178" style="enable-background:new 0 0 502 178;" xml:space="preserve">
<style type="text/css">
	.st0{fill:none;}
	.st1{fill:#373737;}
</style>
<g>
	<path class="st0" d="M37.9,6.5L37.9,6.5C37.8,6.6,37.7,6.7,37.9,6.5z"/>
	<path class="st0" d="M463.1,6.5L463.1,6.5C463.3,6.7,463.2,6.6,463.1,6.5z"/>
	<path class="st0" d="M179.2,28.6c-46.2-14-118-14.6-130.3-7c-13.4,8.2-13.7,40.1,4.6,82.9c28,53.6,93.2,58.6,114,50.3
		c10.5-3.5,24.5-21.4,34.2-43.6c11.2-25.8,14.2-51.6,7.7-65.7C208.4,43.3,203.4,35.9,179.2,28.6z"/>
	<path class="st0" d="M452.1,21.6c-12.3-7.6-84.1-6.9-130.3,7c-24.2,7.3-29.3,14.8-30.2,16.9c-6.5,14.1-3.5,39.9,7.7,65.7
		c9.7,22.2,23.7,40.2,34.2,43.6c20.8,8.3,86.1,3.4,114-50.3C465.8,61.7,465.5,29.8,452.1,21.6z"/>
	<path class="st1" d="M491.2,7.8l-28.1-1.3c0.1,0.1,0.2,0.2,0,0c0,0-99.3-9-146.3,5.2c-4.2,1.3-8.2,2.6-11.8,4
		c-8.2,3.2-16.6,6-25.3,7.3c-9.1,1.3-18.9,2.2-29.1,2.4c-10.2-0.3-20-1.1-29.1-2.4c-8.7-1.3-17.1-4.1-25.3-7.3
		c-3.6-1.4-7.5-2.8-11.8-4C137.2-2.5,37.9,6.5,37.9,6.5c-0.3,0.2-0.2,0.1,0,0L9.8,7.8c-3.4,0-6.4,1.9-7.8,4.8v7.6l11.3,40
		c5.8,20,10.9,32.8,28.2,58.8c19.9,31.2,59,56.5,97.2,56.5c14.7,0,27.3-2,34.5-4.4c17.9-8.5,35.3-31.1,44.7-52.9
		c8.1-18.6,12.3-36.8,12.5-52.5c0-3,1.5-5.8,4.1-7.4c4.5-2.9,10-4.9,16-5.8c6.1,0.9,11.5,2.9,16,5.8c2.6,1.6,4,4.4,4.1,7.4
		c0.2,15.7,4.4,33.9,12.5,52.5c9.5,21.7,26.8,44.4,44.7,52.9c7.2,2.4,19.8,4.4,34.5,4.4c38.2,0,77.3-25.3,97.2-56.5
		c17.2-26,22.3-38.8,28.2-58.8l11.3-40v-7.6C497.5,9.8,494.6,7.8,491.2,7.8z M201.7,111.2c-9.7,22.2-23.7,40.2-34.2,43.6
		c-20.8,8.3-86.1,3.4-114-50.3c-18.3-42.8-18-74.7-4.6-82.9c12.3-7.6,84.1-6.9,130.3,7c24.2,7.3,29.3,14.8,30.2,16.9
		C215.9,59.6,212.9,85.4,201.7,111.2z M447.5,104.5c-28,53.6-93.2,58.6-114,50.3c-10.5-3.5-24.5-21.4-34.2-43.6
		c-11.2-25.8-14.2-51.6-7.7-65.7c1-2.1,6-9.6,30.2-16.9c46.2-14,118-14.6,130.3-7C465.5,29.8,465.8,61.7,447.5,104.5z"/>
	<path class="st1" d="M463.1,6.5L463.1,6.5C462.9,6.4,462.8,6.3,463.1,6.5z"/>
	<path class="st1" d="M37.9,6.5L37.9,6.5C38.2,6.3,38.1,6.4,37.9,6.5z"/>
</g>
</svg>
